Patient4_TMGait_0pt8_01_left_44_EMG.mot
version=1
nRows=30
nColumns=33
inDegrees=no
endheader
time	1LAddLong	2LGlutMax	3LGlutMed	4LIliopsoas	5LSemiMemb	6LBicFemLong	7LRecFem	8LVastMed	9LVastLat	10LGasMed	11LTibAnt	12lTibPost	13LPeroneusLong	14LSol	15LExtDigLong	16LFlexDigLong	17RAddLong	18RGlutMax	19RGlutMed	20RIliopsoas	21RSemiMemb	22RBicFemLong	23RRecFem	24RVastMed	25RVastLat	26RGasMed	27RTibAnt	28RTibPost	29RPeroneusLong	30RSol	31RExtDigLong	32RFlexDigLong
49.245	-0.035095	-0.9404	0.15976	-0.011139	-0.15564	0.15823	0.83756	0.001831	-0.91034	-0.078125	0.011597	0.016479	-0.11841	0.008087	-0.2301	-0.02121	-0.11627	-1.0992	-0.26993	0.057831	0.051117	-0.16205	0.51987	-0.003967	-0.01709	0.005188	-0.23071	-0.005035	0.054474	-0.23315	-0.001526	-0.02182
49.246	-0.021515	-0.9758	0.014496	0.002289	-0.29098	0.31296	0.80139	-0.005341	-0.86624	-0.16083	0.079193	0.028992	-0.15884	0.021973	0.004578	-0.023193	-0.057983	-0.93933	-0.30472	0.10269	-0.039063	-0.27771	0.49103	-0.037689	-0.033417	0.003662	0.27771	-0.002747	0.015106	-0.19486	-0.001373	-0.016632
49.247	-0.058136	-1.0393	0.010834	0.010529	-0.33234	0.32089	0.7695	-0.002899	-0.86289	-0.12054	0.15442	0.03006	0.15076	0.00946	0.1207	-0.024719	-0.041046	-0.8255	-0.30182	0.16663	-0.086365	-0.25452	0.54657	-0.045624	-0.030212	0.008698	0.48187	-0.018005	0.028076	-0.19333	-0.002136	-0.010376
49.248	-0.036621	-1.0347	0.098724	0.020294	-0.18662	0.13214	0.71701	0.036926	-0.74158	-0.029755	0.21927	0.050964	0.41794	0.035095	0.29098	-0.032806	-0.052795	-0.75806	-0.24109	0.09201	-0.1239	-0.20416	0.55191	-0.014801	-0.031738	0.013275	0.041962	-0.00061	0.12344	-0.1767	-0.000916	-0.012817
49.249	-0.00351	-0.96008	0.2536	0.017853	0.003967	-0.01358	0.63019	0.053253	-0.63294	-0.075836	0.15366	0.057373	0.62286	0.020599	0.16815	-0.022736	-0.05722	-0.63385	-0.23102	-0.009003	-0.16815	-0.19882	0.58273	-0.1265	-0.047455	0.011902	-0.59555	-0.019073	0.13214	-0.1828	-0.001831	-0.009613
49.25	-0.017548	-0.91629	0.2446	0.014801	0.068054	0.15533	0.62607	0.039063	-0.54916	-0.062714	0.049438	0.048523	0.059357	-0.000763	-0.008087	-0.022125	-0.03952	-0.55222	-0.26138	-0.061035	-0.16876	-0.13031	0.65155	-0.16342	-0.065308	0.011902	-0.85113	-0.001373	0.11597	-0.224	-0.001984	-0.000916
49.251	-0.006409	-0.82748	0.19424	0.001373	0.077515	0.22797	0.61279	0.005646	-0.53604	-0.03006	-0.01236	0.046387	0.39734	-0.026703	-0.13275	-0.040894	-0.06012	-0.47455	-0.34958	-0.077972	-0.14862	-0.099335	0.70328	-0.13428	-0.032196	0.011597	-0.43701	-0.007019	0.18936	-0.23712	-0.001678	-0.001221
49.252	-0.002747	-0.70618	0.11032	0.026855	0.15106	-0.026093	0.56473	-0.012817	-0.72357	-0.10696	-0.12283	0.048676	0.62393	0.17273	-0.17517	0.003662	-0.074158	-0.38742	-0.37613	-0.09079	-0.1738	-0.16907	0.73318	-0.15045	-0.04776	0.011292	-0.2536	-0.013275	0.20721	0.05722	0	-0.00473
49.253	0.008545	-0.54398	0.1918	0.024567	0.16083	-0.16296	0.62317	-0.016785	-0.7457	-0.16693	-0.089722	0.050354	-0.84717	0.30426	-0.056458	-0.024261	-0.10239	-0.31891	-0.27451	-0.032349	-0.18188	-0.16022	0.68344	-0.10422	-0.035248	0.001221	-0.028992	-0.010681	0.1268	0.18646	-0.005493	-0.009766
49.254	0.016174	-0.42053	0.22095	0.022125	0.10529	-0.25711	0.59586	0.007172	-0.70984	0.002594	-0.025635	0.045776	-1.4282	0.037842	-0.055237	-0.018311	-0.098267	-0.22385	-0.30548	0.012817	-0.16052	-0.02243	0.67474	-0.038757	-0.016327	0	0.097809	-0.009613	-0.003967	0.26032	-0.009003	-0.005341
49.255	0.017853	-0.39093	0.16403	0.011597	0	-0.19669	0.60226	-0.003204	-0.62912	0.12421	-0.052032	0.054016	-0.53818	-0.18143	0.089417	-0.007019	-0.065918	-0.16556	-0.25467	-0.032806	-0.11307	0.07309	0.61981	0.076447	-0.007629	0.006714	-0.23529	-0.007782	0.067749	0.26962	-0.005188	-0.010681
49.256	0.005798	-0.34485	0.12695	0.008545	-0.088196	-0.3157	0.60852	-0.006104	-0.54672	0.12985	-0.037231	0.056	0.63171	-0.28168	0.28137	-0.006256	-0.03479	-0.080566	-0.24887	-0.11032	-0.1033	0.18601	0.69687	0.058746	0.005646	0.006561	-0.42755	-0.014801	0.16739	0.21072	-0.001068	-0.009308
49.257	0.002441	-0.17029	0.043488	0.018463	-0.097504	-0.18662	0.71137	-0.002441	-0.50705	0.14832	-0.007935	0.057983	0.61905	-0.23041	0.23773	-0.032196	-0.037537	0.028687	-0.31311	-0.10315	-0.1445	0.17334	0.75043	0.05722	-0.007324	0.007324	-0.82581	-0.003815	0.29388	0.12146	-0.001068	-0.010834
49.258	0.005035	-0.040741	-0.091553	0.012207	-0.11307	-0.20111	0.69427	-0.003662	-0.51636	0.25101	0.007172	0.04303	-0.18967	-0.35156	-0.064087	0.16525	-0.06424	0.14069	-0.3717	-0.086823	-0.18524	0.1091	0.79544	0.1059	-0.019531	0.005341	-0.78049	-0.005035	0.26337	0.078888	-0.000763	-0.011597
49.259	0.000458	0.001678	-0.10254	0.005035	-0.15808	-0.090179	0.73303	0.001221	-0.50629	0.2919	0.004883	0.048523	-0.23209	-0.4332	-0.10849	0.006104	0.000763	0.17471	-0.32776	-0.10132	-0.19104	0.030212	0.82001	0.13275	-0.017242	0.001678	0.14038	-0.002136	0.082245	0.079346	-0.000458	-0.01709
49.26	-0.003357	0.039978	-0.19638	0.002594	-0.075378	-0.16983	0.71381	0.016479	-0.47562	0.18143	0.025787	0.054932	-0.18188	-0.72159	-0.042572	-0.094147	0.084381	0.22079	-0.26001	-0.10346	-0.16144	0.056152	0.83054	0.14786	-0.02121	0.001068	0.63309	-0.004578	-0.021667	0.051422	-0.000305	-0.014343
49.261	0.016632	-0.005798	-0.38727	0.011902	0.10757	-0.11368	0.73776	0.028076	-0.44418	-0.22461	0.006866	0.048218	-0.13306	-0.71777	0.082397	0.20508	0.11902	0.32166	-0.19211	-0.017548	-0.080566	0.082855	0.91843	0.08606	0.00473	-0.002747	0.38971	-0.002747	-0.13016	0.10056	0.002441	-0.014801
49.262	0.033569	-0.056305	-0.2858	0.001526	0.15656	-0.055389	0.77789	0.045471	-0.37857	-0.41657	-0.00412	0.045471	-0.26337	-0.79529	-0.044708	0.068817	0.12177	0.42557	-0.037842	0.028229	-0.008545	0.15366	0.94864	0.010529	-0.018768	-0.000458	0.050812	-0.000305	-0.10223	0.097809	0.00061	-0.016174
49.263	0.022125	-0.12787	-0.14923	-0.042725	0.077209	-0.005188	0.83649	0.045471	-0.29129	-0.40741	0.007172	0.06424	0.12894	-0.25177	-0.051422	-1.7943	0.15701	0.50262	-0.075836	0.063171	0.061951	0.14145	1.0306	0.042725	-0.023499	-0.000458	-0.4422	-0.010071	-0.086365	0.088043	-0.002136	-0.012665
49.264	0.02533	-0.096741	-0.25665	-0.031281	0.061188	0.01236	0.84167	0.033569	-0.23926	-0.23972	0.033569	0.053101	0.072327	0.17395	-0.019226	0.64224	0.1828	0.5484	-0.29068	0.13748	0.075073	0.025177	1.0237	0.10864	-0.029297	0.00351	-0.63187	-0.008392	-0.028229	0.057526	-0.00061	-0.007477
49.265	0.030823	-0.023041	-0.32974	0.016785	0.042267	0.048676	0.84656	-0.005951	-0.23209	0.28427	0	0.069275	0.12253	0.4335	-0.028076	0.60974	0.18204	0.54703	-0.39002	0.20737	0.022278	-0.071411	1.0747	0.11856	-0.042725	0.012207	-0.4631	-0.010376	0.10651	-0.023956	-0.002747	-0.001526
49.266	0.02594	0.029602	-0.38071	0.013275	0.024109	0.10666	0.76981	-0.017395	-0.19409	0.87692	-0.005035	0.059509	-0.086975	0.31601	-0.082092	-0.24902	0.14206	0.54199	-0.4332	0.23209	0.017395	-0.039215	1.0912	0.19516	-0.050201	0.011292	0.19592	-0.007935	0.04715	0.009613	0.000763	-0.002747
49.267	0.028229	0.036011	-0.47211	0.005646	-0.005035	0.23132	0.70007	-0.012817	-0.052338	1.0184	0.01709	0.067139	0.19104	0.041351	-0.06546	-0.14694	0.11551	0.522	-0.48187	0.1944	0.036774	-0.027771	1.0301	0.25589	-0.035858	0.006866	0.73654	-0.009766	-0.10666	-0.078125	-0.003662	-0.007324
49.268	0.025482	0.053558	-0.48035	0.017242	-0.056152	0.4248	0.62546	0.008392	-0.079803	0.93674	-0.005798	0.088196	0.12253	-0.23377	0.021362	0.78018	0.10223	0.55161	-0.45776	0.085754	0.008392	-0.018768	1.0327	0.29297	-0.021973	0.011139	0.56595	-0.010681	-0.017548	-0.24597	-0.007019	-0.002899
49.269	0.025482	0.11017	-0.31525	0.014954	-0.067749	0.54291	0.67795	0.004272	-0.033722	0.28824	0.005951	0.20172	0.072937	-0.31555	0.016632	0.30151	0.073242	0.61523	-0.37613	-0.057526	-0.02594	-0.003662	0.98541	0.29266	-0.021667	0.009308	0.021362	-0.017242	-0.08606	-0.21729	-0.004272	-0.010071
49.27	0.024109	0.17761	-0.04425	0.001221	-0.068512	0.50003	0.81131	-0.009918	-0.014343	-0.71411	0.000763	0.084076	-0.14893	-0.37048	-0.029297	0.024719	0.11276	0.61813	-0.29831	-0.19699	-0.02182	0.005341	1.0155	0.2684	-0.041046	-0.00351	0.15854	-0.010681	-0.17609	-0.047302	0.001221	-0.014343
49.271	0.014038	0.24918	0.15137	-0.012817	-0.062714	0.31891	0.82092	-0.001068	-0.07019	-0.94757	0.009918	-0.06073	-0.24719	-0.37766	-0.082092	0.089417	0.097656	0.57312	-0.37537	-0.32135	0.031433	0.018311	1.0457	0.1886	-0.034637	0.00061	-0.25375	-0.009918	-0.00885	-0.11169	-0.001068	-0.008545
49.272	0.011444	0.35233	0.21683	-0.005798	-0.030975	0.2948	0.82733	0.00824	-0.10712	-0.4718	0.025177	-0.036163	-0.11429	-0.33875	-0.11871	0.11185	0.099182	0.56274	-0.61798	-0.28412	0.030518	0.029907	1.0638	0.11337	-0.054932	-0.003662	-0.060883	-0.00351	0.11246	-0.15411	-0.00061	-0.017548
49.273	-0.001526	0.36499	0.086212	0.007629	-0.029602	0.13534	0.82916	0.010834	-0.064087	-0.44876	0.028076	0.13062	-0.032959	-0.35156	-0.10162	-0.007629	0.091248	0.54886	-0.41168	-0.12512	0.007629	-0.019684	1.0507	0.039368	-0.045013	0.00412	-0.54581	-0.00351	0.098877	-0.1297	0.000916	-0.017242
49.274	-0.002899	0.40649	-0.037384	0.021362	-0.054016	0.065918	0.77866	-0.002289	-0.054932	-0.45776	0.032806	0.20035	-0.045624	0.034637	-0.014343	0.02655	0.025482	0.52429	-0.24994	0.05249	-0.045624	-0.053711	1.0527	0.030518	-0.06073	0.002289	-1.0077	-0.007477	0.095978	-0.12405	0.000305	-0.014801
